<svg width="22" height="22" fill="none" xmlns="http://www.w3.org/2000/svg"><path opacity=".5" d="M18.424 3.575A10.431 10.431 0 0011 .5a10.432 10.432 0 00-7.425 3.075A10.431 10.431 0 00.5 11c0 2.805 1.092 5.442 3.075 7.425A10.431 10.431 0 0011 21.5c2.805 0 5.442-1.092 7.425-3.075A10.431 10.431 0 0021.5 11c0-2.805-1.092-5.441-3.075-7.425zM11 18.881c-4.346 0-7.881-3.536-7.881-7.881 0-4.345 3.535-7.881 7.881-7.881s7.88 3.535 7.88 7.88c0 4.346-3.535 7.881-7.88 7.881z" fill="#F15B41"/><path d="M18.424 3.556A10.416 10.416 0 0011.98.522l-.013-.001-.009-.001-.209-.018a1.308 1.308 0 00-.204 2.61l.14.017a7.897 7.897 0 017.195 7.86c0 4.35-3.535 7.889-7.88 7.889-4.346 0-7.881-3.54-7.881-7.89a7.892 7.892 0 013.687-6.677 1.314 1.314 0 01-.117.065A1.308 1.308 0 105.157 2.29c.06-.063.127-.12.199-.17-.637.408-1.234.887-1.781 1.434A10.452 10.452 0 00.5 10.988c0 2.808 1.092 5.448 3.075 7.433A10.426 10.426 0 0011 21.5c2.805 0 5.442-1.093 7.425-3.079a10.449 10.449 0 003.075-7.433c0-2.807-1.093-5.447-3.076-7.432z" fill="#F15B41"/><path d="M11.008 10.662H9.147c-.19 0-.284-.124-.233-.312.364-1.353.73-2.706 1.096-4.058.038-.14.106-.192.244-.192h2.391c.041 0 .085.002.123.015.12.042.17.173.113.31l-.573 1.38-.37.893c-.01.025-.018.05-.031.089h.131c.729 0 1.457-.001 2.186.002.063 0 .134.012.186.045.107.068.118.2.038.323-.216.33-.434.658-.65.986a5102.734 5102.734 0 01-3.72 5.62.319.319 0 01-.152.127c-.17.052-.3-.107-.25-.295l.281-1.04 1.027-3.793c.008-.029.014-.058.024-.1z" fill="#F15B41"/></svg>